<?xml version="1.0" encoding="utf-8"?>
<!-- Generator: Adobe Illustrator 19.0.0, SVG Export Plug-In . SVG Version: 6.00 Build 0)  -->
<svg version="1.1" id="Layer_1" xmlns="http://www.w3.org/2000/svg" xmlns:xlink="http://www.w3.org/1999/xlink" x="0px" y="0px"
	 viewBox="0 0 1920 1080" style="enable-background:new 0 0 1920 1080;" xml:space="preserve">
<style type="text/css">
	.st0{fill:#FFFFFF;}
	.st1{fill:#00AEEF;}
	.st2{fill:#FFFFFF;stroke:#000000;stroke-width:8;stroke-miterlimit:10;}
	.st3{fill:none;stroke:#000000;stroke-width:5;stroke-miterlimit:10;}
</style>
<g id="XMLID_2_">
	<path id="XMLID_56_" d="M950.1,294c-27.9-9.1-58.7-18.7-124,6.7c-30.7,18-149.3,13.3-154,10c0,0-31.3-27.3,94-80.7
		c-68.7-15.3-178-12-224,65.3s-9.3,165.3,176,164c-25.3,18.7-52,49.3-52,49.3l65.3,25.3l-90.7,138c0,0,78.7,236.7,330,236.7
		s342.6-235.3,342.6-235.3l-94-142.7l54.7-22c0,0-31.3-43.3-52.7-49.3c51.3-2,200.7-6,195.3-107.3c-5.3-101.3-110.7-148-241.3-121.3
		c18.7,6.7,108,42.7,97.3,77.3c-28.7,8-68.7,7.3-126.7,2c-58-5.3-71.3-41.3-149.3-18C975.5,298.7,971.3,300.9,950.1,294z"/>
	<path id="XMLID_55_" class="st0" d="M785.5,332c0,0-122.7,6-141.3-10.7c-18.7-16.7,14.7-68.7,85.3-86.7c-46,0-180,12.7-172,112.7
		c7.3,57.3,84,72.7,214,68.7C779.5,366.7,785.5,332,785.5,332z"/>
	<path id="XMLID_54_" class="st0" d="M1156.1,332c0,0,122.7,6,141.3-10.7c18.7-16.7-14.7-68.7-85.3-86.7c46,0,180,12.7,172,112.7
		c-7.3,57.3-84,72.7-214,68.7C1162.1,366.7,1156.1,332,1156.1,332z"/>
	<polygon id="XMLID_53_" class="st1" points="824.1,321.4 796.1,328.7 788.8,374.7 806.5,397.4 	"/>
	<polygon id="XMLID_52_" class="st1" points="1116.8,321.4 1144.8,328.7 1152.1,374.7 1134.5,397.4 	"/>
	<path id="XMLID_51_" class="st1" d="M847.5,316.7L814.1,456c0,0,70.7,20,109.3,74c18.7,0,25.3,0,25.3,0s14,8.3,21.8-27.3
		c3.6,8,10.2,28.4,19.6,28.6s26.7,0,26.7,0s42.7-57.2,110-73.9c-12.7-60-32.7-140.7-32.7-140.7s-19.3-9.3-41.3-13.3
		s-42.4,0.4-69.3,13.3c-18.7,9-62-11.3-62-11.3S906.8,290,847.5,316.7z"/>
	<path id="XMLID_50_" class="st1" d="M774.8,447.4c0,0-57.3,28-75.3,54c32.7-18.7,48-34,89.3-41.3
		C780.8,452,774.8,447.4,774.8,447.4z"/>
	<path id="XMLID_49_" class="st1" d="M1167.5,447.4c0,0,57.3,28,75.3,54c-32.7-18.7-48-34-89.3-41.3
		C1161.5,452,1167.5,447.4,1167.5,447.4z"/>
	<path id="XMLID_48_" class="st1" d="M806.5,494c0,0,57.7,26.7,81.7,64c3.3,22,3.3,64.7,3.3,64.7l16-68
		C907.5,554.7,881,506.5,806.5,494z"/>
	<path id="XMLID_47_" class="st1" d="M1134.5,494c0,0-57.7,26.7-81.7,64c-3.3,22-3.3,64.7-3.3,64.7l-16-68
		C1033.5,554.7,1060,506.5,1134.5,494z"/>
	<path id="XMLID_46_" class="st1" d="M925.5,542.7l-25.3,92c0,0,63.3-13.3,140,0c-18-69-24.7-92-24.7-92H925.5z"/>
	<path id="XMLID_45_" class="st0" d="M882.8,501.4c0,0-4,9.3,0,16c4,6.7,4.7,0,30.7,25.3C913.5,536.7,920.8,530.7,882.8,501.4z"/>
	<path id="XMLID_44_" class="st0" d="M1058.3,501.4c0,0,4,9.3,0,16c-4,6.7-4.7,0-30.7,25.3C1027.6,536.7,1020.3,530.7,1058.3,501.4z
		"/>
	<path id="XMLID_43_" class="st1" d="M920.1,645.4l15.3,31.3c0,0-26-24.7-32-28.3s-41.3,7-43.3,12.7c-2,5.7-9,24.3-3.2,32.3
		c5.8,8,14.9,15.3,24.1,20.7c-10.9,0-16.2,0-16.2,0l20,54c0,0,77.3-27.3,170.7,0c12-19.3,22-54,22-54l-17.4-1.3
		c0,0,23.8-9.3,23.9-22c0.2-12.7,4.8-29.3-6.5-34.7c-11.3-5.3-28.7-8-37.3-7.7s-34,30.3-34,30.3s10-31.3,14.7-33.3
		S953.5,634.7,920.1,645.4z"/>
	<path id="XMLID_42_" class="st1" d="M962.8,768c0,0-54,4.7-64.7,10.7c0,6,9.6,8.7,21.8,6C932.1,782,962.8,768,962.8,768z"/>
	<path id="XMLID_41_" class="st1" d="M749.8,550l21.7,10.7l10.3-7v10c0,0,30.3,24.9,63,76.4c-7.3,15.9-19,45.2-1.7,69.6
		c5.7,20,19,61,31,74.3c0,3-2,29.7,169.3,81.7c-11,2.7-150,17.7-242.3-50.3c-2.3-15-7-24.3-8.3-64.7c-4,22-8,53-8,53
		s-12.3-57.7-12.3-110c-6.3,22.3-13.7,85-13.7,87c-4.3-30-11.3-56-15-143.3c-11.7,47.3-20.3,109-20.3,109s-25.7-23.7-51.7-72.3
		C687.5,653.4,749.8,550,749.8,550z"/>
	<path id="XMLID_40_" d="M928.5,688c0,0-22.3-24-30.3-24.3c-8-0.3-25,3.7-26.7,6.3c-1.7,2.7-3.7,7.7,6.7,10.3S928.5,688,928.5,688z"
		/>
	<path id="XMLID_39_" d="M1013.1,688c0,0,22.3-24,30.3-24.3c8-0.3,25,3.7,26.7,6.3c1.7,2.7,3.7,7.7-6.7,10.3S1013.1,688,1013.1,688z
		"/>
	<polygon id="XMLID_38_" points="766.1,230 780.6,254.5 804.2,221.7 838.3,270.7 858.2,211.7 886.5,270.4 907.6,227.9 947.4,265.3 
		979.3,200.5 997.9,255.1 1033.7,227.6 1048.3,272 1081.7,221.6 1110,269.9 1131,240 1138.8,282 1169,226.6 1175.5,230.7 
		1168.2,206.1 1146.5,241.6 1133.7,191.5 1111.9,235 1084.3,175.3 1058.8,223 1037.7,196.3 1005.8,228.2 981.6,171.1 942.1,222.5 
		900.3,177.5 887.3,229.4 861.8,185.6 830.4,225.5 804.9,199.7 779.9,238.4 	"/>
	<g id="XMLID_35_">
		<path id="XMLID_37_" class="st2" d="M795,426.9V574C795,574,659.4,499.3,795,426.9z"/>
		<path id="XMLID_36_" d="M777.1,447.4l11.7-7.7v118.7c0,0-37.3-20.7-44.7-53.3c0-6.7,9.7,34.3,39.7,45
			C783.8,516.4,787.1,442.7,777.1,447.4z"/>
	</g>
	<g id="XMLID_32_">
		<path id="XMLID_34_" class="st2" d="M1144.7,426.9V574C1144.7,574,1280.3,499.3,1144.7,426.9z"/>
		<path id="XMLID_33_" d="M1162.6,447.4l-11.7-7.7v118.7c0,0,37.3-20.7,44.7-53.3c0-6.7-9.7,34.3-39.7,45
			C1155.9,516.4,1152.6,442.7,1162.6,447.4z"/>
	</g>
	<path id="XMLID_3_" class="st3" d="M790,574c0,0-31.1,89.7,19.1,142s27.4,90,27.4,90s-27.4,67.2,103.5,70.5"/>
</g>
</svg>
