<?xml version="1.0" encoding="utf-8"?>
<!-- Generator: Adobe Illustrator 19.0.0, SVG Export Plug-In . SVG Version: 6.00 Build 0)  -->
<svg version="1.1" id="Layer_1" xmlns="http://www.w3.org/2000/svg" xmlns:xlink="http://www.w3.org/1999/xlink" x="0px" y="0px"
	 viewBox="0 0 1920 1080" style="enable-background:new 0 0 1920 1080;" xml:space="preserve">
<style type="text/css">
	.st0{fill:#231F20;}
	.st1{fill:#FFFFFF;}
	.st2{fill:#00ADEE;}
	.st3{fill:#FFFFFF;stroke:#231F20;stroke-width:8;stroke-miterlimit:10;}
	.st4{fill:none;stroke:#231F20;stroke-width:5;stroke-miterlimit:10;}
	.st5{fill:#FFFFFF;stroke:#231F20;stroke-width:2;stroke-miterlimit:10;}
</style>
<g>
	<g id="XMLID_2_">
		<path id="XMLID_56_" class="st0" d="M950.1,194c-27.9-9.1-58.7-18.7-124,6.7c-30.7,18-149.3,13.3-154,10c0,0-31.3-27.3,94-80.7
			c-68.7-15.3-178-12-224,65.3s-9.3,165.3,176,164c-25.3,18.7-52,49.3-52,49.3l65.3,25.3l-90.7,138c0,0,78.7,236.7,330,236.7
			s342.6-235.3,342.6-235.3l-94-142.7l54.7-22c0,0-31.3-43.3-52.7-49.3c51.3-2,200.7-6,195.3-107.3
			c-5.3-101.3-110.7-148-241.3-121.3c18.7,6.7,108,42.7,97.3,77.3c-28.7,8-68.7,7.3-126.7,2s-71.3-41.3-149.3-18
			C975.5,198.7,971.3,200.9,950.1,194z"/>
		<path id="XMLID_55_" class="st1" d="M785.5,232c0,0-122.7,6-141.3-10.7s14.7-68.7,85.3-86.7c-46,0-180,12.7-172,112.7
			c7.3,57.3,84,72.7,214,68.7C779.5,266.7,785.5,232,785.5,232z"/>
		<path id="XMLID_54_" class="st1" d="M1156.1,232c0,0,122.7,6,141.3-10.7c18.7-16.7-14.7-68.7-85.3-86.7c46,0,180,12.7,172,112.7
			c-7.3,57.3-84,72.7-214,68.7C1162.1,266.7,1156.1,232,1156.1,232z"/>
		<polygon id="XMLID_53_" class="st2" points="824.1,221.4 796.1,228.7 788.8,274.7 806.5,297.4 		"/>
		<polygon id="XMLID_52_" class="st2" points="1116.8,221.4 1144.8,228.7 1152.1,274.7 1134.5,297.4 		"/>
		<path id="XMLID_51_" class="st2" d="M847.5,216.7L814.1,356c0,0,70.7,20,109.3,74c18.7,0,25.3,0,25.3,0s14,8.3,21.8-27.3
			c3.6,8,10.2,28.4,19.6,28.6s26.7,0,26.7,0s42.7-57.2,110-73.9c-12.7-60-32.7-140.7-32.7-140.7s-19.3-9.3-41.3-13.3
			s-42.4,0.4-69.3,13.3c-18.7,9-62-11.3-62-11.3S906.8,190,847.5,216.7z"/>
		<path id="XMLID_50_" class="st2" d="M774.8,347.4c0,0-57.3,28-75.3,54c32.7-18.7,48-34,89.3-41.3
			C780.8,352,774.8,347.4,774.8,347.4z"/>
		<path id="XMLID_49_" class="st2" d="M1167.5,347.4c0,0,57.3,28,75.3,54c-32.7-18.7-48-34-89.3-41.3
			C1161.5,352,1167.5,347.4,1167.5,347.4z"/>
		<path id="XMLID_48_" class="st2" d="M806.5,394c0,0,57.7,26.7,81.7,64c3.3,22,3.3,64.7,3.3,64.7l16-68
			C907.5,454.7,881,406.5,806.5,394z"/>
		<path id="XMLID_47_" class="st2" d="M1134.5,394c0,0-57.7,26.7-81.7,64c-3.3,22-3.3,64.7-3.3,64.7l-16-68
			C1033.5,454.7,1060,406.5,1134.5,394z"/>
		<path id="XMLID_46_" class="st2" d="M925.5,442.7l-25.3,92c0,0,63.3-13.3,140,0c-18-69-24.7-92-24.7-92H925.5z"/>
		<path id="XMLID_45_" class="st1" d="M882.8,401.4c0,0-4,9.3,0,16s4.7,0,30.7,25.3C913.5,436.7,920.8,430.7,882.8,401.4z"/>
		<path id="XMLID_44_" class="st1" d="M1058.3,401.4c0,0,4,9.3,0,16s-4.7,0-30.7,25.3C1027.6,436.7,1020.3,430.7,1058.3,401.4z"/>
		<path id="XMLID_43_" class="st2" d="M920.1,545.4l15.3,31.3c0,0-26-24.7-32-28.3s-41.3,7-43.3,12.7s-9,24.3-3.2,32.3
			s14.9,15.3,24.1,20.7c-10.9,0-16.2,0-16.2,0l20,54c0,0,77.3-27.3,170.7,0c12-19.3,22-54,22-54l-17.4-1.3c0,0,23.8-9.3,23.9-22
			c0.2-12.7,4.8-29.3-6.5-34.7c-11.3-5.3-28.7-8-37.3-7.7s-34,30.3-34,30.3s10-31.3,14.7-33.3S953.5,534.7,920.1,545.4z"/>
		<path id="XMLID_42_" class="st2" d="M962.8,668c0,0-54,4.7-64.7,10.7c0,6,9.6,8.7,21.8,6S962.8,668,962.8,668z"/>
		<path id="XMLID_41_" class="st2" d="M749.8,450l21.7,10.7l10.3-7v10c0,0,30.3,24.9,63,76.4c-7.3,15.9-19,45.2-1.7,69.6
			c5.7,20,19,61,31,74.3c0,3-2,29.7,169.3,81.7c-11,2.7-150,17.7-242.3-50.3c-2.3-15-7-24.3-8.3-64.7c-4,22-8,53-8,53
			s-12.3-57.7-12.3-110c-6.3,22.3-13.7,85-13.7,87c-4.3-30-11.3-56-15-143.3c-11.7,47.3-20.3,109-20.3,109s-25.7-23.7-51.7-72.3
			C687.5,553.4,749.8,450,749.8,450z"/>
		<path id="XMLID_40_" class="st0" d="M928.5,588c0,0-22.3-24-30.3-24.3s-25,3.7-26.7,6.3c-1.7,2.7-3.7,7.7,6.7,10.3
			S928.5,588,928.5,588z"/>
		<path id="XMLID_39_" class="st0" d="M1013.1,588c0,0,22.3-24,30.3-24.3s25,3.7,26.7,6.3c1.7,2.7,3.7,7.7-6.7,10.3
			S1013.1,588,1013.1,588z"/>
		<polygon id="XMLID_38_" class="st0" points="766.1,130 780.6,154.5 804.2,121.7 838.3,170.7 858.2,111.7 886.5,170.4 907.6,127.9 
			947.4,165.3 979.3,100.5 997.9,155.1 1033.7,127.6 1048.3,172 1081.7,121.6 1110,169.9 1131,140 1138.8,182 1169,126.6 
			1175.5,130.7 1168.2,106.1 1146.5,141.6 1133.7,91.5 1111.9,135 1084.3,75.3 1058.8,123 1037.7,96.3 1005.8,128.2 981.6,71.1 
			942.1,122.5 900.3,77.5 887.3,129.4 861.8,85.6 830.4,125.5 804.9,99.7 779.9,138.4 		"/>
		<g id="XMLID_35_">
			<path id="XMLID_37_" class="st3" d="M795,326.9V474C795,474,659.4,399.3,795,326.9z"/>
			<path id="XMLID_36_" class="st0" d="M777.1,347.4l11.7-7.7v118.7c0,0-37.3-20.7-44.7-53.3c0-6.7,9.7,34.3,39.7,45
				C783.8,416.4,787.1,342.7,777.1,347.4z"/>
		</g>
		<g id="XMLID_32_">
			<path id="XMLID_34_" class="st3" d="M1144.7,326.9V474C1144.7,474,1280.3,399.3,1144.7,326.9z"/>
			<path id="XMLID_33_" class="st0" d="M1162.6,347.4l-11.7-7.7v118.7c0,0,37.3-20.7,44.7-53.3c0-6.7-9.7,34.3-39.7,45
				C1155.9,416.4,1152.6,342.7,1162.6,347.4z"/>
		</g>
		<path id="XMLID_3_" class="st4" d="M790,474c0,0-31.1,89.7,19.1,142s27.4,90,27.4,90s-27.4,67.2,103.5,70.5"/>
	</g>
	<g>
		<path id="XMLID_25_" class="st2" d="M597.5,984.6l-27.2-27.2v-81.7h27.2v68.1l13.6,13.6H652v-74.9l27.2-13.6v115.7H597.5z"/>
		<path id="XMLID_23_" class="st2" d="M785.5,875.7l27.2,27.2v81.7h-109V875.7H785.5z M785.5,916.6L771.9,903H731v54.5h54.5
			L785.5,916.6L785.5,916.6z"/>
		<path id="XMLID_21_" class="st2" d="M837.4,875.7h27.2v108.9h-27.2V875.7z"/>
		<path id="XMLID_19_" class="st0" d="M1137.8,920.8c-0.7,1-1.5,2.1-2.3,3.2c-0.8,1.1-1.7,2.2-2.7,3.3c-1,1.1-1.7,1.8-2.1,2.1
			c0.4,0.4,1.1,1.2,2,2.2c0.9,1,1.8,2,2.7,3.1c0.9,1.1,1.7,2,2.4,2.9c0.7,0.9,1,1.5,1,1.8v29.1c0,1.6-0.4,3.3-1.1,5.1
			c-0.8,1.8-1.7,3.5-2.8,5.1c-1.1,1.6-2.4,2.9-4,4c-1.5,1.1-3,1.6-4.5,1.6h-107.3l-2.2-2.6V877.1l2.2-2.4h107.3
			c1.5,0,2.9,0.5,4.5,1.6c1.5,1.1,2.9,2.4,4,4c1.1,1.6,2,3.3,2.8,5.2c0.7,1.8,1.1,3.5,1.1,5v28.4
			C1138.8,919.2,1138.4,919.8,1137.8,920.8z M1052.7,941.5l-1.7-1.8v-20.1l1.7-1.8h58.9v-19.3h-67.5v62.2h67.5v-19.1L1052.7,941.5
			L1052.7,941.5z"/>
		<path id="XMLID_17_" class="st0" d="M1175,984.4c-1.6,0-3.1-0.5-4.6-1.6c-1.5-1.1-2.7-2.4-3.9-4c-1.1-1.6-2-3.3-2.8-5.1
			c-0.8-1.8-1.1-3.5-1.1-5.1v-92.5l2.2-1.5h22.6l2.4,1.5v84.4h67.6v-84.3l2.4-1.5h22.5l2.4,1.5v92.5c0,1.6-0.4,3.3-1.1,5.1
			c-0.8,1.8-1.7,3.5-2.8,5.1c-1.1,1.6-2.4,2.9-4,4c-1.5,1.1-3,1.6-4.5,1.6L1175,984.4L1175,984.4z"/>
		<path id="XMLID_16_" class="st0" d="M1308.6,981.8V876.2l2.2-1.5h22.6l2.4,1.5v82l1.5,2.4h68l1.7,2.4v19.1l-1.5,2.4h-94.7
			L1308.6,981.8z"/>
		<path id="XMLID_13_" class="st0" d="M1430.7,981.8V876.2l2.2-1.5h22.6l2.4,1.5v82l1.5,2.4h68l1.7,2.4v19.1l-1.5,2.4h-94.7
			L1430.7,981.8z"/>
		<path id="XMLID_12_" class="st2" d="M547.6,917.6v67.1h-26v-22.2h-50.2L445,984.7h-40.8l96.2-79.4c5.9-4.7,16.8-13.6,47.2-36.3
			c0,18.4,0,40.9,0,48.4L547.6,917.6L547.6,917.6z M521.6,920.2L493.5,944h28.1V920.2z"/>
		<circle id="XMLID_11_" class="st2" cx="943.7" cy="930.2" r="44.1"/>
		<path id="XMLID_10_" class="st0" d="M943.7,988.6c-16.1,0-29.8-5.7-41.3-17.1c-11.5-11.4-17.2-25.2-17.2-41.3
			c0-16,5.7-29.8,17.1-41.2c11.4-11.4,25.2-17.2,41.3-17.2c16.1,0,29.9,5.7,41.3,17.2s17.2,25.2,17.2,41.2
			c0,16.1-5.7,29.8-17.2,41.3S959.7,988.6,943.7,988.6z M943.7,886.1c-12.1,0-22.5,4.3-31.2,12.9c-8.7,8.6-12.9,19-12.9,31.1
			c0,12.3,4.3,22.8,12.9,31.4c8.7,8.6,19,12.9,31.2,12.9c12.1,0,22.5-4.3,31.2-12.9c8.7-8.6,12.9-19.1,12.9-31.4
			c0-12.1-4.3-22.5-12.9-31.1C966.2,890.3,955.8,886.1,943.7,886.1z M943.7,969.7c-10.8,0-20.1-3.8-27.8-11.5s-11.5-17-11.5-27.9
			c0-10.8,3.8-20.1,11.5-27.9c7.7-7.7,17-11.6,27.8-11.6s20.1,3.9,27.8,11.6s11.5,17,11.5,27.9c0,10.9-3.8,20.2-11.5,27.9
			S954.4,969.7,943.7,969.7z M943.7,904.9c-7,0-12.9,2.5-17.8,7.4c-5,5-7.4,10.9-7.4,17.8c0,7,2.5,13,7.4,17.9
			c5,5,10.9,7.4,17.8,7.4c7,0,12.9-2.5,17.8-7.4c5-4.9,7.4-10.9,7.4-17.9c0-7-2.5-12.9-7.4-17.8
			C956.5,907.4,950.5,904.9,943.7,904.9z"/>
		<circle id="XMLID_6_" class="st0" cx="943.7" cy="930.2" r="21.5"/>
		<path id="XMLID_5_" class="st5" d="M957.1,909.1c2.8-1,6-1,8.9,0.3l31.9,14.6c5.8,2.7,8.4,9.6,5.7,15.4c-2.7,5.9-9.6,8.4-15.4,5.7
			l-31.9-14.6c-4.3-1.9-6.8-6.2-6.8-10.6l-54.3-24.8c-1.1,1-2.5,1.8-3.9,2.4c-2.9,1.1-6.2,1.1-9.3-0.3c-6.1-2.8-8.8-10.1-6-16.1
			c1.4-3.1,3.9-5.2,6.8-6.3c2.9-1.1,6.2-1.1,9.3,0.3c3.1,1.4,5.2,3.9,6.4,6.8c0.5,1.4,0.8,2.8,0.8,4.3l54.4,24.9
			C954.7,910.3,955.8,909.7,957.1,909.1z"/>
	</g>
</g>
</svg>
